<svg height="512" viewBox="0 0 512 512" width="512" xmlns="http://www.w3.org/2000/svg"><g id="Flat"><rect fill="#8acce7" height="256" rx="32" width="352" x="136" y="24"/><path d="m136 248h352a0 0 0 0 1 0 0 32 32 0 0 1 -32 32h-288a32 32 0 0 1 -32-32 0 0 0 0 1 0 0z" fill="#379ec3"/><path d="m168 48h288a8 8 0 0 1 8 8v192a0 0 0 0 1 0 0h-304a0 0 0 0 1 0 0v-192a8 8 0 0 1 8-8z" fill="#a2c32a"/><path d="m288 280v16a32 32 0 0 1 -32 32h112a32 32 0 0 1 -32-32v-16z" fill="#8acce7"/><path d="m208 176h32v48h-32z" fill="#e44042"/><path d="m272 152h32v72h-32z" fill="#e88604"/><path d="m336 176h32v48h-32z" fill="#e44042"/><path d="m400 136h32v88h-32z" fill="#349966"/><path d="m421.65991 93.65991-29.65991 29.66016-34.34009 34.33984a8.01478 8.01478 0 0 1 -11.31982 0l-58.34009-58.34985-58.34 58.34985-11.32-11.32007 64.00006-64a8.01523 8.01523 0 0 1 11.31982 0l58.34012 58.3501 28.68994-28.68994 29.65015-29.66016z" fill="#349966"/><path d="m392 123.32v-11.32h-11.31l29.65-29.66 11.32 11.32z" fill="#008051"/><path d="m424 120h-16v-24h-24v-16h32a8.00008 8.00008 0 0 1 8 8z" fill="#349966"/><path d="m176 64h32v16h-32z" fill="#eedc9a"/><path d="m224 64h16v16h-16z" fill="#eedc9a"/><path d="m176 88h32v16h-32z" fill="#eedc9a"/><path d="m448 232h-264a8.00008 8.00008 0 0 1 -8-8v-112h16v104h256z" fill="#2f4054"/><path d="m24 288h304v200h-304z" fill="#ad7d4d"/><path d="m176 264v184a15.97843 15.97843 0 0 0 -16-16h-112v-184h112a15.99552 15.99552 0 0 1 16 16z" fill="#eedc9a"/><path d="m88 264h16v16h-16z" fill="#eebe33"/><path d="m72 296h16v16h-16z" fill="#eebe33"/><path d="m104 296h48v16h-48z" fill="#eebe33"/><path d="m120 264h32v16h-32z" fill="#eebe33"/><path d="m120 328h32v16h-32z" fill="#eebe33"/><path d="m72 328h32v16h-32z" fill="#eebe33"/><path d="m80 376h32v32h-32z" fill="#e44042"/><path d="m112 360h32v48h-32z" fill="#349966"/><path d="m304 432h-112a16 16 0 0 0 -16 16v-184a16 16 0 0 1 16-16h112z" fill="#eedc9a"/><g fill="#eebe33"><path d="m248 360h32v16h-32z"/><path d="m200 360h32v16h-32z"/><path d="m200 328h16v16h-16z"/><path d="m248 296h32v16h-32z"/><path d="m200 264h48v16h-48z"/><path d="m200 296h32v16h-32z"/><path d="m264 264h16v16h-16z"/><path d="m232 328h48v16h-48z"/><path d="m200 392h16v16h-16z"/><path d="m232 392h48v16h-48z"/><path d="m176 448v16h-128v-32h112a15.99552 15.99552 0 0 1 16 16z"/><path d="m192 432h112a0 0 0 0 1 0 0v32a0 0 0 0 1 0 0h-128a0 0 0 0 1 0 0v-16a16 16 0 0 1 16-16z"/></g><path d="m160 464h16v24h-16z" fill="#966342"/><path d="m176 264v184a15.97843 15.97843 0 0 0 -16-16v-184a15.99552 15.99552 0 0 1 16 16z" fill="#eebe33"/><path d="m176 448v16h-16v-32a15.99552 15.99552 0 0 1 16 16z" fill="#e88604"/></g></svg>